<svg xmlns="http://www.w3.org/2000/svg" width="512" height="512" viewBox="0 0 512 512" version="1.1">
	<path d="M 39.496 61.248 C 39.197 62.486, 39.076 147.650, 39.227 250.500 L 39.500 437.500 259.253 437.752 L 479.005 438.004 478.753 248.752 L 478.500 59.500 259.270 59.248 L 40.039 58.996 39.496 61.248 M 54.463 83.248 C 54.201 83.936, 54.102 158.975, 54.243 250 L 54.500 415.500 259 415.500 L 463.500 415.500 463.500 249 L 463.500 82.500 259.220 82.248 C 96.320 82.046, 54.843 82.249, 54.463 83.248 M 112 102.654 C 97.446 105.355, 84.379 123.575, 80.913 146 C 79.502 155.135, 80.260 172.257, 82.442 180.500 C 86.299 195.071, 95.239 208.091, 105.057 213.435 C 111.936 217.179, 121.255 217.441, 127.851 214.076 C 137.814 208.993, 145.693 198.681, 150.761 184.090 C 153.201 177.065, 153.400 175.235, 153.430 159.500 C 153.461 143.397, 153.315 142.078, 150.658 134.500 C 145.549 119.928, 137.686 109.311, 128.840 105.037 C 124.726 103.049, 116.298 101.857, 112 102.654 M 111.500 118.736 C 107.859 119.653, 101.547 124.922, 98.310 129.746 C 84.145 150.856, 89.763 188.895, 108.500 198.741 C 112.478 200.832, 121.664 200.846, 125.571 198.768 C 136.257 193.082, 144 176.649, 144 159.655 C 144 149.673, 142.532 143.029, 138.403 134.328 C 132.394 121.665, 122.541 115.954, 111.500 118.736 M 386.667 125.667 C 386.300 126.033, 386 134.078, 386 143.544 C 386 156.101, 385.662 161.032, 384.750 161.778 C 384.063 162.340, 380.479 163.554, 376.786 164.475 C 364.450 167.551, 348.054 165.392, 334.123 158.857 C 313.050 148.972, 307.145 147.297, 299.605 149.071 C 291.988 150.862, 287.164 153.654, 281.288 159.673 C 275.867 165.226, 274.893 168.063, 277.035 172.066 C 278.583 174.958, 281.206 174.417, 285.054 170.415 C 289.656 165.627, 295.557 162.254, 300.798 161.416 C 306.922 160.437, 316.016 163.151, 331.500 170.577 C 338.650 174.007, 346.944 177.530, 349.932 178.406 C 356.896 180.450, 368.925 180.445, 376.540 178.396 C 385.404 176.012, 385.460 176.022, 385.803 180.126 C 386.212 185.021, 384.512 186.442, 375.925 188.381 C 360.732 191.812, 348.267 189.379, 325.557 178.553 C 313.750 172.923, 306.051 171.324, 298.820 172.999 C 292.257 174.519, 285.441 178.713, 280.077 184.533 C 275.886 189.079, 275.031 192.321, 277.035 196.066 C 278.612 199.013, 280.669 198.420, 285.547 193.610 C 291.411 187.830, 297.573 184.996, 304.239 185.015 C 310.795 185.033, 315.025 186.471, 332 194.453 C 339.425 197.945, 347.914 201.521, 350.865 202.401 C 358.176 204.580, 367.916 204.409, 376.694 201.946 C 380.720 200.816, 384.462 200.167, 385.008 200.505 C 386.490 201.421, 386.205 207.585, 384.619 208.901 C 382.064 211.021, 371.560 213.241, 364 213.258 C 353.958 213.280, 342.519 210.233, 329.376 204.034 C 311.090 195.408, 304.572 194.318, 294.291 198.164 C 290.408 199.617, 286.609 202.139, 282.729 205.840 C 276.749 211.543, 275.356 214.299, 276.383 218.390 C 277.467 222.709, 279.838 222.349, 285.723 216.970 C 292.488 210.787, 296.571 208.997, 303.872 209.011 C 311.363 209.025, 316.663 210.751, 331.294 217.938 C 338.039 221.252, 345.795 224.641, 348.529 225.471 C 355.170 227.485, 371.075 227.464, 377.919 225.431 C 380.824 224.569, 383.809 224.097, 384.553 224.382 C 385.463 224.731, 386.004 227.129, 386.203 231.701 L 386.500 238.500 412.931 238.767 C 433.409 238.974, 439.542 238.749, 440.165 237.767 C 441.091 236.309, 441.311 128.973, 440.393 126.582 C 439.861 125.195, 436.552 125, 413.560 125 C 399.135 125, 387.033 125.300, 386.667 125.667 M 109.389 130.905 C 105.669 133.173, 102.779 137.051, 99.901 143.635 C 97.292 149.604, 96.709 166.100, 98.880 172.500 C 102.469 183.079, 109.710 190, 117.187 190 C 123.987 190, 129.523 185.375, 133.906 176.030 C 136.237 171.060, 136.496 169.335, 136.462 159 C 136.426 148.389, 136.205 147.075, 133.601 142 C 130.327 135.619, 127.585 132.374, 123.800 130.405 C 119.975 128.415, 113.080 128.654, 109.389 130.905 M 393.688 137.646 C 392.697 138.636, 392.869 154.245, 393.888 155.853 C 394.557 156.909, 395.214 156.956, 396.873 156.068 C 398.677 155.102, 399 154.025, 399 148.965 L 399 143 412.893 143 C 424.639 143, 426.880 143.244, 427.393 144.582 C 428.186 146.647, 428.186 217.353, 427.393 219.418 C 426.882 220.751, 424.694 221, 413.515 221 C 400.892 221, 400.166 220.890, 398.649 218.750 L 397.055 216.500 394.978 218.922 C 393.751 220.352, 393.023 222.401, 393.200 223.922 L 393.500 226.500 413.260 226.771 L 433.021 227.042 432.760 182.271 L 432.500 137.500 413.438 137.229 C 402.953 137.080, 394.066 137.268, 393.688 137.646 M 395.693 170.482 C 393.602 172.011, 392.498 177.857, 393.903 179.960 C 395.594 182.493, 399 178.446, 399 173.904 C 399 169.511, 398.181 168.663, 395.693 170.482 M 395.036 194.964 C 392.985 197.015, 392.552 200.011, 393.836 203.258 C 394.475 204.873, 394.714 204.888, 396.766 203.451 C 398.426 202.289, 399 200.889, 399 198.002 C 399 193.251, 397.726 192.274, 395.036 194.964 M 75.667 282.667 C 74.722 283.611, 74.865 303.240, 75.828 304.756 C 76.459 305.750, 93.274 305.959, 156.563 305.756 L 236.500 305.500 236.782 293.750 L 237.063 282 156.698 282 C 112.498 282, 76.033 282.300, 75.667 282.667 M 75.610 323.575 C 74.714 325.908, 74.896 344.288, 75.829 345.757 C 76.459 346.750, 91.176 346.960, 146.063 346.757 L 215.500 346.500 215.500 334.500 L 215.500 322.500 145.860 322.243 C 83.004 322.011, 76.160 322.141, 75.610 323.575 M 75.477 364.244 C 75.167 365.485, 75.046 370.775, 75.207 376 L 75.500 385.500 156.282 385.756 L 237.064 386.012 236.782 374.256 L 236.500 362.500 156.271 362.244 L 76.041 361.988 75.477 364.244" stroke="none" fill="black" fill-rule="evenodd"/>
</svg>